<svg width="289" height="61" viewBox="0 0 289 61" fill="none" xmlns="http://www.w3.org/2000/svg">
<path d="M0.590909 47V0.454544H9.02273V21.8409H9.59091L27.75 0.454544H38.0455L20.0455 21.3409L38.2045 47H28.0682L14.1818 27.0455L9.02273 33.1364V47H0.590909ZM53.5852 47.7045C51.3731 47.7045 49.3807 47.3106 47.608 46.5227C45.8504 45.7197 44.4564 44.5379 43.4261 42.9773C42.411 41.4167 41.9034 39.4924 41.9034 37.2045C41.9034 35.2348 42.267 33.6061 42.9943 32.3182C43.7216 31.0303 44.714 30 45.9716 29.2273C47.2292 28.4545 48.6458 27.8712 50.2216 27.4773C51.8125 27.0682 53.4564 26.7727 55.1534 26.5909C57.1989 26.3788 58.858 26.1894 60.1307 26.0227C61.4034 25.8409 62.3277 25.5682 62.9034 25.2045C63.4943 24.8258 63.7898 24.2424 63.7898 23.4545V23.3182C63.7898 21.6061 63.2822 20.2803 62.267 19.3409C61.2519 18.4015 59.7898 17.9318 57.8807 17.9318C55.8655 17.9318 54.267 18.3712 53.0852 19.25C51.9186 20.1288 51.1307 21.1667 50.7216 22.3636L43.0398 21.2727C43.6458 19.1515 44.6458 17.3788 46.0398 15.9545C47.4337 14.5151 49.1383 13.4394 51.1534 12.7273C53.1686 12 55.3958 11.6364 57.8352 11.6364C59.517 11.6364 61.1913 11.8333 62.858 12.2273C64.5246 12.6212 66.0473 13.2727 67.4261 14.1818C68.8049 15.0758 69.911 16.2955 70.7443 17.8409C71.5928 19.3864 72.017 21.3182 72.017 23.6364V47H64.108V42.2045H63.8352C63.3352 43.1742 62.6307 44.0833 61.7216 44.9318C60.8277 45.7652 59.6989 46.4394 58.3352 46.9545C56.9867 47.4545 55.4034 47.7045 53.5852 47.7045ZM55.7216 41.6591C57.3731 41.6591 58.8049 41.3333 60.017 40.6818C61.2292 40.0152 62.161 39.1364 62.8125 38.0455C63.4792 36.9545 63.8125 35.7652 63.8125 34.4773V30.3636C63.5549 30.5758 63.1155 30.7727 62.4943 30.9545C61.8883 31.1364 61.2064 31.2955 60.4489 31.4318C59.6913 31.5682 58.9413 31.6894 58.1989 31.7955C57.4564 31.9015 56.8125 31.9924 56.267 32.0682C55.0398 32.2348 53.9413 32.5076 52.9716 32.8864C52.0019 33.2652 51.2367 33.7955 50.6761 34.4773C50.1155 35.1439 49.8352 36.0076 49.8352 37.0682C49.8352 38.5833 50.3883 39.7273 51.4943 40.5C52.6004 41.2727 54.0095 41.6591 55.7216 41.6591ZM80.2898 47V12.0909H88.267V17.9091H88.6307C89.267 15.8939 90.358 14.3409 91.9034 13.25C93.464 12.1439 95.2443 11.5909 97.2443 11.5909C97.6989 11.5909 98.2064 11.6136 98.767 11.6591C99.3428 11.6894 99.8201 11.7424 100.199 11.8182V19.3864C99.8504 19.2652 99.2973 19.1591 98.5398 19.0682C97.7973 18.9621 97.0777 18.9091 96.3807 18.9091C94.8807 18.9091 93.5322 19.2348 92.3352 19.8864C91.1534 20.5227 90.2216 21.4091 89.5398 22.5455C88.858 23.6818 88.517 24.9924 88.517 26.4773V47H80.2898ZM115.085 47.7045C112.873 47.7045 110.881 47.3106 109.108 46.5227C107.35 45.7197 105.956 44.5379 104.926 42.9773C103.911 41.4167 103.403 39.4924 103.403 37.2045C103.403 35.2348 103.767 33.6061 104.494 32.3182C105.222 31.0303 106.214 30 107.472 29.2273C108.729 28.4545 110.146 27.8712 111.722 27.4773C113.313 27.0682 114.956 26.7727 116.653 26.5909C118.699 26.3788 120.358 26.1894 121.631 26.0227C122.903 25.8409 123.828 25.5682 124.403 25.2045C124.994 24.8258 125.29 24.2424 125.29 23.4545V23.3182C125.29 21.6061 124.782 20.2803 123.767 19.3409C122.752 18.4015 121.29 17.9318 119.381 17.9318C117.366 17.9318 115.767 18.3712 114.585 19.25C113.419 20.1288 112.631 21.1667 112.222 22.3636L104.54 21.2727C105.146 19.1515 106.146 17.3788 107.54 15.9545C108.934 14.5151 110.638 13.4394 112.653 12.7273C114.669 12 116.896 11.6364 119.335 11.6364C121.017 11.6364 122.691 11.8333 124.358 12.2273C126.025 12.6212 127.547 13.2727 128.926 14.1818C130.305 15.0758 131.411 16.2955 132.244 17.8409C133.093 19.3864 133.517 21.3182 133.517 23.6364V47H125.608V42.2045H125.335C124.835 43.1742 124.131 44.0833 123.222 44.9318C122.328 45.7652 121.199 46.4394 119.835 46.9545C118.487 47.4545 116.903 47.7045 115.085 47.7045ZM117.222 41.6591C118.873 41.6591 120.305 41.3333 121.517 40.6818C122.729 40.0152 123.661 39.1364 124.312 38.0455C124.979 36.9545 125.312 35.7652 125.312 34.4773V30.3636C125.055 30.5758 124.616 30.7727 123.994 30.9545C123.388 31.1364 122.706 31.2955 121.949 31.4318C121.191 31.5682 120.441 31.6894 119.699 31.7955C118.956 31.9015 118.313 31.9924 117.767 32.0682C116.54 32.2348 115.441 32.5076 114.472 32.8864C113.502 33.2652 112.737 33.7955 112.176 34.4773C111.616 35.1439 111.335 36.0076 111.335 37.0682C111.335 38.5833 111.888 39.7273 112.994 40.5C114.1 41.2727 115.509 41.6591 117.222 41.6591Z" fill="#4CAF50"/>
<path d="M169.381 21.3182L161.881 22.1364C161.669 21.3788 161.297 20.6667 160.767 20C160.252 19.3333 159.555 18.7955 158.676 18.3864C157.797 17.9773 156.722 17.7727 155.449 17.7727C153.737 17.7727 152.297 18.1439 151.131 18.8864C149.979 19.6288 149.411 20.5909 149.426 21.7727C149.411 22.7879 149.782 23.6136 150.54 24.25C151.313 24.8864 152.585 25.4091 154.358 25.8182L160.312 27.0909C163.616 27.803 166.07 28.9318 167.676 30.4773C169.297 32.0227 170.116 34.0455 170.131 36.5455C170.116 38.7424 169.472 40.6818 168.199 42.3636C166.941 44.0303 165.191 45.3333 162.949 46.2727C160.706 47.2121 158.131 47.6818 155.222 47.6818C150.949 47.6818 147.509 46.7879 144.903 45C142.297 43.197 140.744 40.6894 140.244 37.4773L148.267 36.7045C148.631 38.2803 149.403 39.4697 150.585 40.2727C151.767 41.0758 153.305 41.4773 155.199 41.4773C157.153 41.4773 158.722 41.0758 159.903 40.2727C161.1 39.4697 161.699 38.4773 161.699 37.2955C161.699 36.2955 161.313 35.4697 160.54 34.8182C159.782 34.1667 158.6 33.6667 156.994 33.3182L151.04 32.0682C147.691 31.3712 145.214 30.197 143.608 28.5455C142.002 26.8788 141.206 24.7727 141.222 22.2273C141.206 20.0758 141.79 18.2121 142.972 16.6364C144.169 15.0455 145.828 13.8182 147.949 12.9545C150.085 12.0758 152.547 11.6364 155.335 11.6364C159.426 11.6364 162.646 12.5076 164.994 14.25C167.358 15.9924 168.82 18.3485 169.381 21.3182ZM185.142 26.5455V47H176.915V0.454544H184.96V18.0227H185.369C186.188 16.053 187.453 14.5 189.165 13.3636C190.892 12.2121 193.089 11.6364 195.756 11.6364C198.18 11.6364 200.294 12.1439 202.097 13.1591C203.9 14.1742 205.294 15.6591 206.278 17.6136C207.278 19.5682 207.778 21.9545 207.778 24.7727V47H199.551V26.0455C199.551 23.697 198.945 21.8712 197.733 20.5682C196.536 19.25 194.854 18.5909 192.688 18.5909C191.233 18.5909 189.93 18.9091 188.778 19.5455C187.642 20.1667 186.748 21.0682 186.097 22.25C185.46 23.4318 185.142 24.8636 185.142 26.5455ZM231.392 47.6818C227.983 47.6818 225.028 46.9318 222.528 45.4318C220.028 43.9318 218.089 41.8333 216.71 39.1364C215.347 36.4394 214.665 33.2879 214.665 29.6818C214.665 26.0758 215.347 22.9167 216.71 20.2045C218.089 17.4924 220.028 15.3864 222.528 13.8864C225.028 12.3864 227.983 11.6364 231.392 11.6364C234.801 11.6364 237.756 12.3864 240.256 13.8864C242.756 15.3864 244.688 17.4924 246.051 20.2045C247.43 22.9167 248.119 26.0758 248.119 29.6818C248.119 33.2879 247.43 36.4394 246.051 39.1364C244.688 41.8333 242.756 43.9318 240.256 45.4318C237.756 46.9318 234.801 47.6818 231.392 47.6818ZM231.438 41.0909C233.286 41.0909 234.831 40.5833 236.074 39.5682C237.316 38.5379 238.241 37.1591 238.847 35.4318C239.468 33.7045 239.778 31.7803 239.778 29.6591C239.778 27.5227 239.468 25.5909 238.847 23.8636C238.241 22.1212 237.316 20.7348 236.074 19.7045C234.831 18.6742 233.286 18.1591 231.438 18.1591C229.544 18.1591 227.968 18.6742 226.71 19.7045C225.468 20.7348 224.536 22.1212 223.915 23.8636C223.309 25.5909 223.006 27.5227 223.006 29.6591C223.006 31.7803 223.309 33.7045 223.915 35.4318C224.536 37.1591 225.468 38.5379 226.71 39.5682C227.968 40.5833 229.544 41.0909 231.438 41.0909ZM255.102 60.0909V12.0909H263.193V17.8636H263.67C264.095 17.0152 264.693 16.1136 265.466 15.1591C266.239 14.1894 267.284 13.3636 268.602 12.6818C269.92 11.9848 271.602 11.6364 273.648 11.6364C276.345 11.6364 278.777 12.3258 280.943 13.7045C283.125 15.0682 284.852 17.0909 286.125 19.7727C287.413 22.4394 288.057 25.7121 288.057 29.5909C288.057 33.4242 287.428 36.6818 286.17 39.3636C284.913 42.0455 283.201 44.0909 281.034 45.5C278.867 46.9091 276.413 47.6136 273.67 47.6136C271.67 47.6136 270.011 47.2803 268.693 46.6136C267.375 45.947 266.314 45.1439 265.511 44.2045C264.723 43.25 264.11 42.3485 263.67 41.5H263.33V60.0909H255.102ZM263.17 29.5455C263.17 31.803 263.489 33.7803 264.125 35.4773C264.777 37.1742 265.708 38.5 266.92 39.4545C268.148 40.3939 269.633 40.8636 271.375 40.8636C273.193 40.8636 274.716 40.3788 275.943 39.4091C277.17 38.4242 278.095 37.0833 278.716 35.3864C279.352 33.6742 279.67 31.7273 279.67 29.5455C279.67 27.3788 279.36 25.4545 278.739 23.7727C278.117 22.0909 277.193 20.7727 275.966 19.8182C274.739 18.8636 273.208 18.3864 271.375 18.3864C269.617 18.3864 268.125 18.8485 266.898 19.7727C265.67 20.697 264.739 21.9924 264.102 23.6591C263.481 25.3258 263.17 27.2879 263.17 29.5455Z" fill="#373737"/>
</svg>
