<?xml version="1.0" encoding="UTF-8"?>
<svg xmlns="http://www.w3.org/2000/svg" xmlns:xlink="http://www.w3.org/1999/xlink" width="30px" height="30px" viewBox="0 0 30 30" version="1.1">
<g id="surface1">
<path style=" stroke:none;fill-rule:evenodd;fill:rgb(64.705882%,0%,39.215686%);fill-opacity:1;" d="M 27.972656 0 L 2.027344 0 C 0.914062 0 0 0.914062 0 2.027344 L 0 27.972656 C 0 29.085938 0.914062 30 2.027344 30 L 27.972656 30 C 29.085938 30 30 29.085938 30 27.972656 L 30 2.027344 C 30 0.914062 29.085938 0 27.972656 0 Z M 27.972656 0 "/>
<path style=" stroke:none;fill-rule:nonzero;fill:rgb(100%,100%,100%);fill-opacity:1;" d="M 20.757812 14.085938 C 23.136719 14.085938 25.0625 12.164062 25.0625 9.78125 C 25.0625 7.398438 23.136719 5.472656 20.757812 5.472656 C 18.375 5.472656 16.449219 7.398438 16.449219 9.78125 C 16.449219 12.164062 18.375 14.085938 20.757812 14.085938 Z M 20.757812 7.945312 C 21.769531 7.945312 22.589844 8.765625 22.589844 9.78125 C 22.589844 10.792969 21.769531 11.613281 20.757812 11.613281 C 19.742188 11.613281 18.921875 10.792969 18.921875 9.78125 C 18.921875 8.765625 19.742188 7.945312 20.757812 7.945312 Z M 20.757812 7.945312 "/>
<path style=" stroke:none;fill-rule:nonzero;fill:rgb(100%,100%,100%);fill-opacity:1;" d="M 20.757812 15.953125 C 18.375 15.953125 16.449219 17.878906 16.449219 20.261719 C 16.449219 22.640625 18.375 24.566406 20.757812 24.566406 C 23.136719 24.566406 25.0625 22.640625 25.0625 20.261719 C 25.0625 17.878906 23.136719 15.953125 20.757812 15.953125 Z M 20.757812 22.09375 C 19.742188 22.09375 18.921875 21.273438 18.921875 20.261719 C 18.921875 19.246094 19.742188 18.425781 20.757812 18.425781 C 21.769531 18.425781 22.589844 19.246094 22.589844 20.261719 C 22.589844 21.273438 21.769531 22.09375 20.757812 22.09375 Z M 20.757812 22.09375 "/>
<path style=" stroke:none;fill-rule:nonzero;fill:rgb(100%,100%,100%);fill-opacity:1;" d="M 11.980469 15.953125 C 11.25 15.953125 10.582031 16.195312 10.042969 16.601562 C 9.507812 16.195312 8.828125 15.953125 8.109375 15.953125 C 6.324219 15.953125 4.875 17.402344 4.875 19.1875 L 4.875 24.578125 L 7.347656 24.578125 L 7.347656 19.15625 C 7.347656 18.75 7.671875 18.425781 8.078125 18.425781 C 8.484375 18.425781 8.808594 18.75 8.808594 19.15625 L 8.808594 24.566406 L 11.28125 24.566406 L 11.28125 19.15625 C 11.28125 18.75 11.605469 18.425781 12.011719 18.425781 C 12.414062 18.425781 12.738281 18.75 12.738281 19.15625 L 12.738281 24.566406 L 15.203125 24.566406 L 15.203125 19.175781 C 15.203125 17.402344 13.761719 15.953125 11.980469 15.953125 Z M 11.980469 15.953125 "/>
<path style=" stroke:none;fill-rule:nonzero;fill:rgb(100%,100%,100%);fill-opacity:1;" d="M 11.980469 5.472656 C 11.25 5.472656 10.582031 5.714844 10.042969 6.121094 C 9.507812 5.714844 8.828125 5.472656 8.109375 5.472656 C 6.3125 5.472656 4.863281 6.921875 4.863281 8.707031 L 4.863281 14.085938 L 7.335938 14.085938 L 7.335938 8.675781 C 7.335938 8.269531 7.664062 7.945312 8.066406 7.945312 C 8.472656 7.945312 8.796875 8.269531 8.796875 8.675781 L 8.796875 14.085938 L 11.269531 14.085938 L 11.269531 8.675781 C 11.269531 8.269531 11.59375 7.945312 12 7.945312 C 12.40625 7.945312 12.730469 8.269531 12.730469 8.675781 L 12.730469 14.085938 L 15.203125 14.085938 L 15.203125 8.707031 C 15.203125 6.921875 13.761719 5.472656 11.980469 5.472656 Z M 11.980469 5.472656 "/>
</g>
</svg>
